<?xml version="1.0" standalone="no"?>
<!DOCTYPE svg PUBLIC "-//W3C//DTD SVG 1.1//EN" "http://www.w3.org/Graphics/SVG/1.1/DTD/svg11.dtd" >
<svg>
<metadata>
Created by FontForge 20090622 at Wed Mar 11 07:27:54 2020
 By deploy user
Copyright (c) Holger Kappenstein, 2005. All rights reserved.
</metadata>
<defs>
<font id="Endzone" horiz-adv-x="577" >
  <font-face 
    font-family="Endzone"
    font-weight="400"
    font-stretch="normal"
    units-per-em="1000"
    panose-1="2 0 5 3 4 0 0 2 0 4"
    ascent="800"
    descent="-200"
    x-height="520"
    cap-height="706"
    bbox="-5 -233 1140 927"
    underline-thickness="50"
    underline-position="-75"
    unicode-range="U+000D-U+F8FF"
  />
<missing-glyph horiz-adv-x="409" 
 />
    <glyph glyph-name=".notdef" horiz-adv-x="409" 
 />
    <glyph glyph-name=".null" horiz-adv-x="0" 
 />
    <glyph glyph-name="nonmarkingreturn" horiz-adv-x="333" 
 />
    <glyph glyph-name="CR" unicode="&#xd;" horiz-adv-x="409" 
 />
    <glyph glyph-name="space" unicode=" " horiz-adv-x="409" 
 />
    <glyph glyph-name="exclam" unicode="!" horiz-adv-x="243" 
d="M120 129q-34 0 -57.5 -21t-23.5 -50t23.5 -50t57.5 -21t57.5 21t23.5 50t-23.5 50t-57.5 21zM175 211l26 495h-162l27 -495h109z" />
    <glyph glyph-name="quotedbl" unicode="&#x22;" horiz-adv-x="327" 
d="M286 706h-104v-114l17 -119h70l17 119v114zM126 706h-104v-114l17 -119h70l17 119v114z" />
    <glyph glyph-name="numbersign" unicode="#" horiz-adv-x="574" 
d="M251 384h79l-8 -79h-79zM168 475h-103l-9 -94h103l-6 -73h-104l-9 -94h103l-9 -104h94l9 104h74l-9 -104h94l9 104h103l9 94h-103l7 73h103l9 94h-103l9 103h-94l-9 -103h-74l10 103h-94z" />
    <glyph glyph-name="dollar" unicode="$" horiz-adv-x="659" 
d="M370 -4q141 7 194.5 58t53.5 136q0 30 -4.5 53t-20 51.5t-42.5 51t-75.5 45t-115.5 38.5q-116 28 -150 46.5t-34 64.5q0 74 147 74q28 0 67 -7.5t49 -15.5l27 -96h109l1 157q-100 60 -205 69l2 59h-89l2 -67q-49 -2 -87.5 -9.5t-77 -26.5t-60 -58t-21.5 -95
q0 -86 50 -129t192 -83q114 -33 146 -53q41 -27 41 -70t-31.5 -62t-112.5 -19q-42 0 -79.5 8t-53.5 16l-16 8l-24 94h-109l-1 -170q86 -61 244 -68l-2 -80h88z" />
    <glyph glyph-name="percent" unicode="%" horiz-adv-x="813" 
d="M563 761l-416 -762l94 -52l416 762zM135 553q0 33 21.5 57t50.5 24t50.5 -24t21.5 -57t-21.5 -57t-50.5 -24t-50.5 24t-21.5 57zM40 551q0 -70 49 -120t118 -50t118.5 50t49.5 120t-49.5 120t-118.5 50t-118 -50t-49 -120zM534 159q0 33 21 57t50 24t50.5 -24t21.5 -57
t-21.5 -57t-50.5 -24t-50 24t-21 57zM438 157q0 -70 49 -120t118 -50t118.5 50t49.5 120t-49.5 120t-118.5 50t-118 -50t-49 -120z" />
    <glyph glyph-name="ampersand" unicode="&#x26;" horiz-adv-x="735" 
d="M165 214q0 61 82 111l170 -176q-45 -40 -134 -40q-61 0 -89.5 26t-28.5 79zM40 204q0 -33 3.5 -57t17.5 -54t39.5 -48.5t72.5 -31.5t112 -13q52 0 95 13t61 24t49 34q71 -71 125 -71q45 0 80 10l-19 106q-24 -4 -35 -4q-32 0 -55 23l-22 21q66 79 72 188l58 16v83h-223
v-83l57 -16q-1 -56 -35 -111l-151 159q63 39 93 76.5t30 100.5q0 150 -173 150q-100 0 -149 -39t-49 -127q0 -73 81 -154q-25 -16 -36.5 -24t-34 -28t-34 -38t-21 -46t-9.5 -59zM210 579q3 27 26 39.5t49 12.5q25 0 46 -12.5t26 -38.5q6 -33 -24.5 -69.5t-59.5 -46.5
q-72 61 -63 115z" />
    <glyph glyph-name="quotesingle" unicode="'" horiz-adv-x="153" 
d="M110 595v97h-105v-97l19 -107h66z" />
    <glyph glyph-name="parenleft" unicode="(" horiz-adv-x="357" 
d="M315 -190q-130 192 -135 417v52q-2 202 136 427h-119q-58 -70 -107 -188t-48 -239v-52q1 -114 50 -235.5t96 -181.5h127z" />
    <glyph glyph-name="parenright" unicode=")" horiz-adv-x="356" 
d="M41 -190q130 193 134 417v52q3 202 -135 427h118q58 -70 107.5 -187.5t48.5 -239.5v-52q-1 -114 -50 -235.5t-96 -181.5h-127z" />
    <glyph glyph-name="asterisk" unicode="*" horiz-adv-x="367" 
d="M235 721h-106l35 -111l-90 56l-34 -90l109 -12l-85 -68l76 -61l45 102l54 -98l72 60l-90 69l105 23l-42 85l-76 -63z" />
    <glyph glyph-name="plus" unicode="+" horiz-adv-x="612" 
d="M40 411v-94h221v-220h94v220h216v94h-216v217h-94v-217h-221z" />
    <glyph glyph-name="comma" unicode="," horiz-adv-x="283" 
d="M130 138q31 2 56 -12t35 -38q17 -41 -5.5 -99.5t-87.5 -118.5l-59 40q35 42 38 66.5t-23 45.5q-35 27 -22 69t68 47z" />
    <glyph glyph-name="hyphen" unicode="-" horiz-adv-x="325" 
d="M0 315v-104h284v104h-284z" />
    <glyph glyph-name="period" unicode="." horiz-adv-x="252" 
d="M40 64q0 -31 24.5 -53t60.5 -22q35 0 60 22t25 53t-25 53t-60 22q-36 0 -60.5 -22t-24.5 -53z" />
    <glyph glyph-name="slash" unicode="/" horiz-adv-x="506" 
d="M465 706h-120l-305 -706h129z" />
    <glyph glyph-name="zero" unicode="0" horiz-adv-x="659" 
d="M41 355q-1 -113 12.5 -181t51.5 -111q39 -43 92 -59.5t132 -16.5t132.5 16.5t91.5 59.5q39 43 52 110.5t13 181.5q0 113 -12.5 176.5t-53.5 107.5q-72 82 -223 82q-152 0 -224 -81q-38 -45 -50.5 -108.5t-13.5 -176.5zM329 97q-72 0 -106.5 34t-40.5 96q-3 29 -3 123
q0 79 2 139q2 63 43.5 96.5t104.5 33.5q64 0 107 -33.5t43 -96.5q0 -11 0.5 -53t0.5 -70q0 -108 -2 -139q-12 -130 -149 -130z" />
    <glyph glyph-name="one" unicode="1" horiz-adv-x="366" 
d="M325 0v101l-63 18v587h-81l-150 -49v-124l105 30v-444l-76 -18v-101h265z" />
    <glyph glyph-name="two" unicode="2" horiz-adv-x="572" 
d="M347 298q86 56 132 110t46 120q0 52 -16 89t-39 57t-59.5 31t-64.5 13.5t-67 2.5q-41 0 -68.5 -2.5t-64.5 -13.5t-59.5 -32t-39 -61t-17.5 -97h135q3 110 114 110q60 0 87.5 -21t27.5 -76q0 -24 -13.5 -47t-38 -42.5t-45.5 -33.5t-49.5 -29.5t-36.5 -20.5
q-188 -121 -188 -247v-108h508v220h-84l-38 -110l-249 -2v5q0 24 15 49t42.5 47.5t48.5 37.5t50.5 32.5t30.5 18.5z" />
    <glyph glyph-name="three" unicode="3" horiz-adv-x="610" 
d="M41 184q2 -47 13 -80t38 -61t79 -42t130 -14q154 0 211 51.5t57 168.5q0 125 -118 160l-15 3q9 4 14 6q49 23 73.5 58.5t24.5 91.5q0 52 -17 89.5t-40.5 57.5t-60.5 31.5t-66 14t-67 2.5q-40 0 -67 -2t-63.5 -13t-58.5 -30t-38.5 -56t-17.5 -89v-16h134v16q3 93 111 93
q60 0 87 -21t27 -77q0 -61 -27 -85.5t-90 -24.5h-26v-100h26q76 0 107.5 -24t31.5 -85q0 -59 -28.5 -84t-103.5 -25q-121 0 -121 101h-140q0 -5 1 -15z" />
    <glyph glyph-name="four" unicode="4" horiz-adv-x="618" 
d="M353 212v-93l-68 -18v-101h254v101l-65 18v93h103v107h-103v387h-120l-314 -375v-119h313zM169 319l180 229h5v-229h-185z" />
    <glyph glyph-name="five" unicode="5" horiz-adv-x="598" 
d="M300 379q68 0 96 -36t28 -107t-25 -105t-99 -34q-62 0 -92 21t-34 64l-1 17h-133v-17q5 -95 61 -145t199 -50q59 0 102 10t80 35.5t56 76.5t19 127q0 109 -54 178t-172 69q-57 0 -91 -14.5t-54 -50.5h-6v179h332v109h-462v-403h120q27 76 130 76z" />
    <glyph glyph-name="six" unicode="6" horiz-adv-x="619" 
d="M315 95q-79 0 -110.5 30t-32.5 94q0 55 32.5 93t110.5 38q44 0 72.5 -11t41 -32t16.5 -39.5t4 -44.5q0 -59 -28 -93.5t-106 -34.5zM196 397l-6 -3q15 64 68 128t177 160l-138 39q-132 -98 -194.5 -220t-62.5 -279q0 -34 5 -63t22.5 -62.5t46 -56t80 -38t120.5 -15.5
q264 0 264 240q0 109 -60.5 173t-184.5 64q-41 0 -79 -20t-58 -47z" />
    <glyph glyph-name="seven" unicode="7" horiz-adv-x="533" 
d="M19 478h102l15 119h245q-18 -27 -63 -107t-58 -107q-89 -184 -113 -383h156q1 123 54 296q25 81 135 294v116h-473v-228z" />
    <glyph glyph-name="eight" unicode="8" horiz-adv-x="603" 
d="M302 95q-79 0 -110.5 30t-31.5 91q0 113 142 113q141 0 141 -113q0 -61 -31 -91t-110 -30zM302 426q-69 0 -96 24.5t-27 77.5q0 101 123 101t123 -101q0 -53 -27 -77.5t-96 -24.5zM302 721q-244 0 -244 -183q0 -59 21.5 -98t81.5 -56q-59 -15 -95 -66t-36 -107
q0 -119 63.5 -171.5t208.5 -52.5t208.5 52.5t63.5 171.5q0 56 -36 107t-95 66q60 17 81.5 56t21.5 98q0 183 -244 183z" />
    <glyph glyph-name="nine" unicode="9" horiz-adv-x="600" 
d="M295 620q75 0 105.5 -30.5t30.5 -94.5q0 -54 -31 -90t-105 -36q-42 0 -69.5 10.5t-39.5 30.5t-16 38t-4 43q0 129 129 129zM40 490q0 -120 64.5 -175.5t175.5 -55.5q43 0 74 14t41 28l4 -2q-75 -149 -246 -281l145 -41q117 94 189 223t72 290q0 126 -67 178.5t-196 52.5
q-119 0 -187.5 -56t-68.5 -175z" />
    <glyph glyph-name="colon" unicode=":" horiz-adv-x="251" 
d="M39 410q0 -31 24.5 -53t60.5 -22q35 0 60 22t25 53t-25 53t-60 22q-36 0 -60.5 -22t-24.5 -53zM39 64q0 -31 24.5 -53t60.5 -22q35 0 60 22t25 53t-25 53t-60 22q-36 0 -60.5 -22t-24.5 -53z" />
    <glyph glyph-name="semicolon" unicode=";" horiz-adv-x="283" 
d="M59 410q0 -31 24.5 -53t60.5 -22q35 0 60 22t25 53t-25 53t-60 22q-36 0 -60.5 -22t-24.5 -53zM130 138q31 2 56 -12t35 -38q17 -41 -5 -99.5t-87 -118.5l-60 40q35 42 38 66.5t-23 45.5q-35 27 -22 69t68 47z" />
    <glyph glyph-name="less" unicode="&#x3c;" horiz-adv-x="587" 
d="M160 351l386 153v108l-506 -215v-92l506 -215v108z" />
    <glyph glyph-name="equal" unicode="=" horiz-adv-x="584" 
d="M0 321v-94h543v94h-543zM0 493v-94h543v94h-543z" />
    <glyph glyph-name="greater" unicode="&#x3e;" horiz-adv-x="578" 
d="M417 351l-386 153v108l506 -215v-92l-506 -215v108z" />
    <glyph glyph-name="question" unicode="?" horiz-adv-x="586" 
d="M271 131q-34 0 -57 -21t-23 -50t23 -50t57 -21t57.5 21t23.5 50t-23.5 50t-57.5 21zM441 371q35 25 52.5 40t34.5 46.5t17 69.5q0 52 -17 89.5t-40.5 57t-60.5 31t-66 14t-67 2.5q-41 0 -68.5 -2t-66 -13.5t-61.5 -32.5t-40 -61.5t-18 -97.5h138q2 110 116 110
q59 0 86 -20.5t27 -76.5q0 -35 -33 -63q-15 -12 -33 -24q-33 -22 -37 -25q-45 -33 -72 -79t-28 -123h129q1 54 34 95q14 16 35 34q26 20 39 29z" />
    <glyph glyph-name="at" unicode="@" horiz-adv-x="818" 
d="M621 168q71 0 114 55.5t43 141.5q0 178 -99 267t-270 89q-172 0 -270.5 -94.5t-98.5 -261.5q0 -193 99 -285.5t276 -92.5q74 0 148.5 20.5t123.5 58.5l-56 71q-75 -61 -216 -61q-279 0 -279 289q0 127 69 200.5t204 73.5q146 0 210.5 -71t64.5 -203q0 -106 -49 -106
q-22 0 -32 15t-10 50v196h-104v-46q-10 24 -39 39.5t-73 15.5q-69 0 -113 -39t-47 -98q-2 -60 0 -93q6 -56 50.5 -93.5t117.5 -37.5q100 0 119 50q27 -50 117 -50zM490 379v-60q0 -32 -23 -46t-57 -14q-35 0 -61.5 12.5t-28.5 38.5q-4 40 0 75q3 28 23.5 41t66.5 13
q33 0 56.5 -14.5t23.5 -45.5z" />
    <glyph glyph-name="A" unicode="A" horiz-adv-x="720" 
d="M285 297l71 270h11l72 -270h-154zM467 196l23 -77l-44 -18v-101h251v101l-60 18l-195 587h-152l-198 -587l-58 -18v-101h241v101l-42 18l22 77h212z" />
    <glyph glyph-name="B" unicode="B" horiz-adv-x="659" 
d="M619 203q0 62 -37.5 107.5t-84.5 55.5q105 32 105 151q0 78 -46 133.5t-144 55.5h-375v-102l56 -15v-470l-67 -18v-101h389q204 0 204 203zM373 318q37 0 60 -8t33.5 -24t13.5 -32t3 -40q0 -25 -3 -40.5t-13.5 -32t-33.5 -24t-60 -7.5h-149v208h149zM363 604
q68 0 88.5 -22t20.5 -68q0 -47 -20 -69t-89 -22h-139v181h139z" />
    <glyph glyph-name="C" unicode="C" horiz-adv-x="647" 
d="M113 63q74 -76 211 -76q102 0 164 11.5t118 38.5v153h-113l-21 -66q-39 -23 -129 -23q-155 0 -159 145q-4 124 0 232q2 69 41 102.5t109 33.5q85 0 128 -17l20 -84h124l-1 147q-110 61 -280 61q-130 0 -212 -82q-45 -46 -59 -102t-14 -182q0 -128 14 -187.5t59 -104.5z
" />
    <glyph glyph-name="D" unicode="D" horiz-adv-x="687" 
d="M346 706h-301v-102l59 -15v-470l-77 -18v-101h320q151 0 228 73q45 42 58.5 99t13.5 181t-13 177t-60 96q-83 80 -228 80zM237 604h100q72 0 120.5 -36.5t50.5 -103.5q3 -105 0 -222q-1 -52 -28.5 -82.5t-64 -40t-88.5 -9.5h-90v494z" />
    <glyph glyph-name="E" unicode="E" horiz-adv-x="624" 
d="M476 524h107v182h-548v-102l56 -15v-470l-67 -18v-101h559v182h-107l-23 -72h-229v194h115l26 -36h82v183h-82l-26 -36h-115v189h227z" />
    <glyph glyph-name="F" unicode="F" horiz-adv-x="622" 
d="M474 524h107v182h-538v-102l56 -15v-470l-67 -18v-101h266v101l-66 18v178h115l26 -36h82v183h-82l-26 -36h-115v196h216z" />
    <glyph glyph-name="G" unicode="G" horiz-adv-x="716" 
d="M44 238q3 -69 26.5 -119.5t63.5 -78t86.5 -40.5t101.5 -13q136 0 177 71l21 -58h96v248l60 18v94h-261v-94l72 -14v-80q-30 -43 -65.5 -57t-99.5 -14q-133 0 -139 146q-4 105 0 232q4 135 159 135q71 0 127 -17l18 -84h123l-1 148q-109 60 -286 60q-113 0 -193.5 -64.5
t-85.5 -184.5q-5 -113 0 -234z" />
    <glyph glyph-name="H" unicode="H" horiz-adv-x="760" 
d="M720 0v101l-66 18v470l59 15v102h-248v-102l56 -15v-167h-289v167l59 15v102h-248v-102l57 -15v-470l-67 -18v-101h266v101l-67 18v187h290v-187l-68 -18v-101h266z" />
    <glyph glyph-name="I" unicode="I" horiz-adv-x="330" 
d="M289 0v101l-66 18v470l58 15v102h-247v-102l57 -15v-470l-67 -18v-101h265z" />
    <glyph glyph-name="J" unicode="J" horiz-adv-x="460" 
d="M170 604l57 -15v-383q0 -135 -164 -69l-23 -124q65 -26 133 -26q61 0 99.5 15t57 48t24.5 70t6 96v373l59 15v102h-249v-102z" />
    <glyph glyph-name="K" unicode="K" horiz-adv-x="726" 
d="M231 209l120 117l114 -207l-55 -18v-101h276v101l-63 18l-188 300l156 170l56 15v102h-248v-102l47 -15l-211 -219h-4v219l59 15v102h-247v-102l57 -15v-470l-67 -18v-101h265v101l-67 18v90z" />
    <glyph glyph-name="L" unicode="L" horiz-adv-x="595" 
d="M91 119l-67 -18v-101h530v235h-91l-43 -122h-194v476l59 15v102h-250v-102l56 -15v-470z" />
    <glyph glyph-name="M" unicode="M" horiz-adv-x="886" 
d="M650 218v-99l-66 -18v-101h262v101l-67 18v470l57 15v102h-192l-194 -411h-8l-202 411h-195v-102l56 -15v-470l-67 -18v-101h262v101l-66 18v109q0 44 -3 114.5t-7 119.5l-3 48h3q39 -106 74 -179l96 -198h104v1l95 195q14 30 31.5 75t27.5 76l11 30h4q-6 -68 -8 -112
q-5 -87 -5 -180z" />
    <glyph glyph-name="N" unicode="N" horiz-adv-x="782" 
d="M515 0h170v589l57 15v102h-246v-102l59 -15v-155q0 -39 2.5 -100t4.5 -103l3 -42h-8q-16 47 -38 89l-221 428h-253v-102l56 -15v-470l-67 -18v-101h263v101l-66 18v205l-8 247h9q14 -40 31 -74z" />
    <glyph glyph-name="O" unicode="O" horiz-adv-x="713" 
d="M113 63q43 -44 99 -60t144 -16q89 0 145 16t100 60q44 45 58 105t14 187t-13.5 182.5t-59.5 101.5t-103.5 64t-140.5 18t-141 -18t-102 -64q-46 -46 -59.5 -101.5t-13.5 -182.5q0 -129 14 -188.5t59 -103.5zM182 487q3 62 53 95t121 33q73 0 124 -33t52 -95
q3 -122 3 -129q-2 -112 -4 -130q-12 -127 -175 -127q-161 0 -173 127q-4 41 -4 130q0 70 3 129z" />
    <glyph glyph-name="P" unicode="P" horiz-adv-x="638" 
d="M359 604q68 0 94 -26.5t26 -81.5q0 -59 -25.5 -86t-94.5 -27h-130v221h130zM402 273q105 0 155 63.5t50 160.5q0 49 -18.5 94.5t-63.5 80t-108 34.5h-375v-102l56 -15v-470l-67 -18v-101h264v101l-66 18v154h173z" />
    <glyph glyph-name="Q" unicode="Q" horiz-adv-x="769" 
d="M113 63q43 -44 98.5 -60t144.5 -16q137 0 205 44q73 -44 149 -44l19 116q-34 0 -88 19q30 62 30 233q0 128 -13 183t-59 101q-45 45 -102.5 63.5t-140.5 18.5t-141 -18t-102 -64q-46 -46 -59.5 -101.5t-13.5 -182.5q0 -129 14 -188.5t59 -103.5zM179 487q3 62 54 95
t123 33q73 0 124.5 -33t52.5 -95q3 -124 3 -129q-2 -112 -4 -130q-4 -33 -9 -45q-34 23 -59 53l-59 -80l48 -41q-36 -13 -97 -13q-163 0 -176 126q-4 42 -4 130q0 70 3 129z" />
    <glyph glyph-name="R" unicode="R" horiz-adv-x="718" 
d="M499 298q68 17 101 71t33 124q0 101 -48 157t-142 56h-399v-102l59 -15v-470l-70 -18v-101h272v101l-69 18v171h130l99 -171l-48 -18v-101h261v101l-65 18zM390 604q68 0 89 -24.5t21 -77.5t-21 -78.5t-89 -25.5h-154v206h154z" />
    <glyph glyph-name="S" unicode="S" horiz-adv-x="631" 
d="M561 658q-41 25 -108 44t-144 19q-42 0 -76 -3t-73.5 -14.5t-66.5 -30.5t-45 -54t-18 -83q0 -52 10 -85t39.5 -58.5t71 -42.5t116.5 -39l63.5 -19t49 -18t42 -22.5t22.5 -28t10 -38.5q0 -44 -32 -63t-113 -19q-42 0 -79.5 8.5t-53.5 16.5l-16 8l-24 95h-109l-1 -173
q48 -35 125.5 -53t157.5 -18q71 0 124 10.5t85 28t51.5 44t26.5 54.5t7 63q0 39 -8.5 68.5t-33 63.5t-79 62.5t-137.5 48.5q-122 30 -142 39q-38 18 -41 55q-1 6 -1 12q0 84 148 84q27 0 66 -8t49 -16l27 -98h109z" />
    <glyph glyph-name="T" unicode="T" horiz-adv-x="697" 
d="M136 604h137v-485l-67 -18v-101h267v101l-67 18v485h136l14 -126h101v228h-636v-228h101z" />
    <glyph glyph-name="U" unicode="U" horiz-adv-x="783" 
d="M155 63q40 -43 95.5 -59.5t138.5 -16.5q82 0 137.5 16.5t95.5 59.5q40 44 52 104t12 190v232l57 15v102h-249v-102l59 -15v-232q0 -99 -3 -130q-10 -124 -161 -124q-148 0 -161 124q-4 41 -4 130v232l59 15v102h-249v-102l57 -15v-232q0 -130 12 -190t52 -104z" />
    <glyph glyph-name="V" unicode="V" horiz-adv-x="745" 
d="M93 597l209 -597h149l201 597l57 16v93h-258v-93l58 -17l-90 -277q-10 -30 -18 -65.5t-11 -55.5l-4 -21h-12q-10 62 -36 142l-91 277l60 17v93h-271v-93z" />
    <glyph glyph-name="W" unicode="W" horiz-adv-x="1042" 
d="M468 706l-98 -344q-8 -28 -16 -68t-12 -66l-4 -25h-8q-9 91 -27 157l-64 236l60 16v94h-263v-94l57 -15l167 -597h130l102 384l30 143h9q9 -77 25 -141l98 -386h138l171 598l57 15v93h-253v-93l58 -16l-64 -235q-8 -28 -14.5 -68t-9.5 -66l-3 -25h-9q-10 92 -28 157
l-97 346h-132z" />
    <glyph glyph-name="X" unicode="X" horiz-adv-x="736" 
d="M480 589l-96 -138l-101 138l55 15v102h-268v-102l60 -15l147 -205l-174 -265l-70 -18v-101h273v101l-65 18l111 160l113 -160l-66 -18v-101h297v101l-66 18l-179 241l166 229l62 15v102h-255v-102z" />
    <glyph glyph-name="Y" unicode="Y" horiz-adv-x="708" 
d="M431 266l176 323l61 15v102h-240v-102l50 -15l-114 -210l-122 210l51 15v102h-260v-102l59 -15l193 -327v-143l-67 -18v-101h280v101l-67 18v147z" />
    <glyph glyph-name="Z" unicode="Z" horiz-adv-x="635" 
d="M430 604l-409 -482v-122h573v235h-96l-44 -122h-256l386 480v113h-554v-226h106l20 124h274z" />
    <glyph glyph-name="bracketleft" unicode="[" horiz-adv-x="266" 
d="M225 -190v119h-87v686h87v115h-225v-920h225z" />
    <glyph glyph-name="backslash" unicode="\" horiz-adv-x="506" 
d="M40 706h120l305 -706h-130z" />
    <glyph glyph-name="bracketright" unicode="]" horiz-adv-x="283" 
d="M17 -190v119h87v686h-87v115h225v-920h-225z" />
    <glyph glyph-name="asciicircum" unicode="^" horiz-adv-x="551" 
d="M408 341l-129 267l-131 -267h-108l184 365h108l178 -365h-102z" />
    <glyph glyph-name="underscore" unicode="_" horiz-adv-x="732" 
d="M692 -233h-692v111h692v-111z" />
    <glyph glyph-name="grave" unicode="`" horiz-adv-x="239" 
d="M191 689l-166 1l54 -119l139 -1z" />
    <glyph glyph-name="a" unicode="a" 
d="M356 370v-41q-144 0 -230 -44.5t-86 -134.5q0 -87 44 -123t128 -36q116 0 143 86h5v-73h176v101l-53 18v237q0 47 -18 81.5t-49 54t-66 28.5t-75 9q-57 0 -107 -12t-72 -25l-21 -12l2 -117h112l11 57q7 4 35 7.5t42 3.5q79 0 79 -65zM356 238v-56q0 -36 -28.5 -63.5
t-77.5 -27.5q-78 0 -78 57q0 90 184 90z" />
    <glyph glyph-name="b" unicode="b" horiz-adv-x="598" 
d="M83 119l-50 -18v-101h175v73h5q21 -42 51.5 -62t84.5 -20q92 0 147 55.5t60 139.5q2 49 0 139q-2 85 -60.5 144.5t-146.5 59.5q-100 0 -141 -69v246h-160v-102l35 -15v-470zM208 313q0 53 29.5 79t70.5 26q112 0 120 -96q4 -58 0 -130q-3 -46 -39.5 -69t-80.5 -23
q-41 0 -70.5 26.5t-29.5 80.5v106z" />
    <glyph glyph-name="c" unicode="c" horiz-adv-x="545" 
d="M280 -9q93 0 145.5 24.5t70.5 88.5q4 12 5 29t1 29l-1 11h-120q0 -44 -22 -59.5t-79 -15.5q-60 0 -80.5 18.5t-27.5 69.5q-3 18 -3 67t3 78q5 51 27.5 72.5t80.5 21.5q25 0 53.5 -7.5t33.5 -15.5l11 -58h110l1 120q-23 27 -84 46t-125 19q-222 0 -236 -195q-7 -99 0 -151
q11 -101 59.5 -146.5t176.5 -45.5z" />
    <glyph glyph-name="d" unicode="d" horiz-adv-x="606" 
d="M565 0v101l-50 18v587h-160v-102l35 -15v-129q-41 69 -141 69q-88 0 -145.5 -58.5t-61.5 -145.5q-3 -109 0 -139q7 -85 61.5 -140t145.5 -55q54 0 84.5 20t51.5 62h5v-73h175zM390 313v-106q0 -53 -29.5 -78.5t-70.5 -25.5q-44 0 -80.5 22.5t-39.5 66.5q-4 72 0 130
q8 96 120 96q41 0 70.5 -26t29.5 -79z" />
    <glyph glyph-name="e" unicode="e" horiz-adv-x="569" 
d="M528 228h-357v-17q0 -64 33.5 -90t81.5 -26q46 0 78 21t32 57h131q0 -82 -57 -132t-184 -50q-125 0 -183.5 57t-60.5 149q-3 107 0 137q7 85 69.5 140t174.5 55q121 0 181.5 -64t60.5 -185v-52zM171 319h228v15q0 40 -34.5 67t-79.5 27q-46 0 -80 -27t-34 -67v-15z" />
    <glyph glyph-name="f" unicode="f" horiz-adv-x="378" 
d="M259 101l-50 18v293h76v108h-76v23q0 47 31.5 58t97.5 -5v110q-31 15 -97 15q-45 0 -76.5 -12t-47 -27t-23.5 -43.5t-9 -46t-1 -50.5v-22h-41v-108h41v-293l-45 -18v-101h220v101z" />
    <glyph glyph-name="g" unicode="g" horiz-adv-x="596" 
d="M384 61h4v-72q0 -91 -149 -91q-40 0 -82 15.5t-63 30.5l-22 16v-107q2 -3 6.5 -7t22 -15t38.5 -19.5t58 -15.5t80 -7q240 0 240 210v409l38 13v99h-167v-65q-37 74 -143 74q-89 0 -142 -57.5t-60 -138.5q-6 -50 0 -140q5 -93 59.5 -149.5t142.5 -56.5q99 0 139 74z
M388 312v-107q0 -54 -29.5 -80t-70.5 -26q-44 0 -79 22.5t-37 68.5q-4 83 0 131q4 49 30.5 72.5t85.5 23.5q40 0 70 -26t30 -79z" />
    <glyph glyph-name="h" unicode="h" horiz-adv-x="600" 
d="M79 589v-470l-46 -18v-101h215v101l-42 18v194q0 53 24.5 73.5t65.5 20.5q91 0 91 -94v-313h172v101l-45 18v217q0 90 -47.5 141.5t-120.5 51.5q-42 0 -82 -25t-58 -54v256h-162v-102z" />
    <glyph glyph-name="i" unicode="i" horiz-adv-x="295" 
d="M52 644q0 -31 24.5 -53.5t60.5 -22.5t60 22.5t24 53.5q0 32 -24 54.5t-60 22.5t-60.5 -22.5t-24.5 -54.5zM254 101l-44 18v401h-161v-99l35 -13v-289l-44 -18v-101h214v101z" />
    <glyph glyph-name="j" unicode="j" horiz-adv-x="339" 
d="M127 644q0 -31 25 -53.5t61 -22.5t60.5 22.5t24.5 53.5q0 32 -24.5 54.5t-60.5 22.5t-61 -22.5t-25 -54.5zM115 421l52 -18v-426q0 -46 -42.5 -56.5t-91.5 14.5v-106q12 -12 42 -21t60 -9q45 0 77 12t47.5 27t24 43.5t9.5 46.5t1 50v542h-179v-99z" />
    <glyph glyph-name="k" unicode="k" horiz-adv-x="605" 
d="M384 315l105 96l37 10v99h-215v-99l35 -10l-140 -117v412h-162v-102l36 -15v-470l-47 -18v-101h218v101l-46 18v39l90 78l86 -135v-101h183v101l-46 18z" />
    <glyph glyph-name="l" unicode="l" horiz-adv-x="284" 
d="M243 101l-45 18v611h-163v-88l36 -16v-507l-46 -18v-101h218v101z" />
    <glyph glyph-name="m" unicode="m" horiz-adv-x="896" 
d="M559 101l-50 18v201q0 88 87 88q38 0 63 -18.5t25 -58.5v-331h180v101l-50 18v239q0 81 -51.5 125.5t-131.5 44.5q-88 0 -153 -67q-19 28 -53.5 48t-76.5 20q-103 0 -148 -79v70h-157v-99l35 -13v-289l-46 -18v-101h221v101l-48 18v201q0 88 85 88q38 0 63.5 -19
t25.5 -58v-331h180v101z" />
    <glyph glyph-name="n" unicode="n" horiz-adv-x="622" 
d="M532 119v217q0 80 -51 136.5t-121 56.5q-45 0 -89.5 -25.5t-58.5 -56.5v73h-161v-99l35 -13v-289l-46 -18v-101h219v101l-47 18v194q0 53 25 73t70 21q97 2 97 -94v-313h177v101z" />
    <glyph glyph-name="o" unicode="o" horiz-adv-x="576" 
d="M532 334q-6 85 -69 140t-174 55q-113 0 -176.5 -55t-70.5 -140q-3 -30 0 -137q5 -106 64.5 -156t182.5 -50q120 0 177.5 49.5t65.5 156.5q5 74 0 137zM405 179q-4 -39 -36.5 -61.5t-79.5 -22.5q-49 0 -80 22t-38 62q-9 52 0 160q3 40 36 65t82 25q47 0 81 -25t36 -65
q2 -27 1.5 -82.5t-2.5 -77.5z" />
    <glyph glyph-name="p" unicode="p" horiz-adv-x="593" 
d="M206 65q35 -74 142 -74q91 0 143 55.5t59 139.5q3 30 0 138q-2 85 -59.5 145t-140.5 60q-106 0 -147 -69v60h-162v-99l35 -13v-479l-43 -18v-101h218v101l-48 18v136h3zM203 313q0 53 29.5 79t69.5 26q58 0 86.5 -23.5t33.5 -72.5q5 -46 0 -130q-2 -45 -38 -67.5
t-82 -22.5q-41 0 -70 26t-29 79v106z" />
    <glyph glyph-name="q" unicode="q" horiz-adv-x="601" 
d="M386 65q-33 -74 -142 -74q-90 0 -142.5 55.5t-59.5 139.5q-3 30 0 138q2 85 59.5 145t140.5 60q106 0 147 -69v60h162v-99l-35 -13v-479l44 -18v-101h-218v101l47 18v136h-3zM389 313q0 53 -29.5 79t-69.5 26q-58 0 -86.5 -23.5t-33.5 -72.5q-5 -46 0 -130
q2 -45 38 -67.5t82 -22.5q41 0 70 26t29 79v106z" />
    <glyph glyph-name="r" unicode="r" horiz-adv-x="413" 
d="M372 384v132q-28 11 -54 11q-83 0 -124 -77v70h-158v-99l34 -13v-289l-45 -18v-101h214v101l-45 18v178q0 79 77 93q45 8 101 -6z" />
    <glyph glyph-name="s" unicode="s" horiz-adv-x="543" 
d="M355 421l21 -74h95l1 133q-7 5 -21.5 13.5t-68 22t-117.5 13.5q-222 0 -222 -147q0 -71 45 -108.5t177 -63.5q66 -13 90.5 -26.5t24.5 -34.5q0 -55 -115 -55q-66 0 -110 28l-19 68h-95l-1 -144q78 -55 225 -55q126 0 181.5 33.5t55.5 121.5q0 75 -52.5 115t-184.5 69
q-66 14 -87 24.5t-21 29.5q0 48 108 48q50 0 89 -11h1z" />
    <glyph glyph-name="t" unicode="t" horiz-adv-x="389" 
d="M219 520v129l-126 -42v-87h-53v-110h53v-242q0 -23 0.5 -35.5t3.5 -34.5t8.5 -34.5t17 -28.5t28 -25t42 -15t58.5 -6q66 0 97 15v114q-66 -18 -97.5 -7.5t-31.5 60.5v239h90v110h-90z" />
    <glyph glyph-name="u" unicode="u" horiz-adv-x="610" 
d="M569 101l-46 18v401h-163v-99l36 -13v-206q0 -42 -29 -68t-68 -26q-103 0 -103 94v318h-163v-99l36 -13v-258q0 -61 47.5 -110t131.5 -49q115 0 148 80h3v-71h170v101z" />
    <glyph glyph-name="v" unicode="v" horiz-adv-x="614" 
d="M416 408l-33 -71q-18 -39 -36 -86.5t-27 -74.5l-9 -28h-9q-27 94 -73 194l-30 66l38 13v99h-206v-99l37 -13l171 -408h134l173 408l39 13v99h-205v-99z" />
    <glyph glyph-name="w" unicode="w" horiz-adv-x="868" 
d="M69 408l115 -408h136l67 216l40 137h5q21 -84 42 -150l66 -203h130l120 408l38 13v99h-196v-99l36 -13l-34 -117l-33 -123h-4l-44 152l-60 200h-125l-61 -202l-43 -152h-5q-18 82 -35 151l-1 1l-24 90l38 13v99h-203v-99z" />
    <glyph glyph-name="x" unicode="x" horiz-adv-x="626" 
d="M324 322l-86 87l25 12v99h-217v-99l39 -13l131 -127l-137 -162l-49 -18v-101h215v101l-33 16l73 93h4l89 -92l-35 -17v-101h242v101l-49 14l-142 138l135 155l41 13v99h-197v-99l23 -12l-70 -87h-2z" />
    <glyph glyph-name="y" unicode="y" horiz-adv-x="635" 
d="M73 408l180 -394q-44 -110 -91 -204h147q70 198 154 401l44.5 102.5t39.5 94.5l47 13v99h-216v-99l40 -13q-27 -78 -104 -255q-100 241 -105 255l40 13v99h-215v-99z" />
    <glyph glyph-name="z" unicode="z" horiz-adv-x="523" 
d="M382 182l-23 -77h-179l285 320v95h-448v-162h103q0 2 6 32t7 34h171l-280 -319v-105h458v182h-100z" />
    <glyph glyph-name="braceleft" unicode="{" horiz-adv-x="379" 
d="M111 120v-165q0 -58 10 -92t39.5 -52.5t68.5 -24t109 -5.5v53q-44 6 -64 17.5t-29.5 41.5t-9.5 92v145q0 55 -15 86t-55 52q39 20 54 55t15 94v153q0 76 20.5 101.5t83.5 34.5v53q-100 0 -146.5 -15.5t-62 -50t-15.5 -109.5v-173q0 -58 -15.5 -82t-58.5 -35v-50
q39 -10 55 -35.5t16 -88.5z" />
    <glyph glyph-name="bar" unicode="|" horiz-adv-x="167" 
d="M0 -190h125v896h-125v-896z" />
    <glyph glyph-name="braceright" unicode="}" horiz-adv-x="376" 
d="M264 120v-165q0 -58 -10 -92t-39.5 -52.5t-68.5 -24t-109 -5.5v53q44 6 64 17.5t29.5 41.5t9.5 92v145q0 55 15 86t55 52q-39 20 -54 55t-15 94v153q0 76 -20.5 101.5t-83.5 34.5v53q100 0 146.5 -15.5t62 -50t15.5 -109.5v-173q0 -58 15.5 -82t58.5 -35v-50
q-39 -10 -55 -35.5t-16 -88.5z" />
    <glyph glyph-name="asciitilde" unicode="~" horiz-adv-x="596" 
d="M192 270q22 1 58 -17.5t79.5 -36.5t82.5 -16q81 4 143 84l-61 106q-3 -3 -13 -15.5t-16.5 -19t-16.5 -15.5t-20.5 -13.5t-21.5 -5.5q-26 -1 -52 10t-46 25.5t-53.5 25.5t-72.5 9q-35 -2 -65.5 -18.5t-44.5 -31.5t-32 -39l63 -106q12 20 38.5 46.5t50.5 27.5z" />
    <glyph glyph-name="exclamdown" unicode="&#xa1;" horiz-adv-x="243" 
d="M120 387q34 0 57.5 21t23.5 50t-23.5 50t-57.5 21t-57.5 -21t-23.5 -50t23.5 -50t57.5 -21zM65 305l-26 -495h162l-27 495h-109z" />
    <glyph glyph-name="cent" unicode="&#xa2;" horiz-adv-x="545" 
d="M242 528q-186 -16 -198 -193q-7 -101 0 -152q11 -94 51.5 -139t146.5 -52l-2 -74h89l-2 75q71 5 112.5 30t56.5 81q4 12 5 29t1 29l-1 11h-120q0 -44 -22 -59.5t-79 -15.5q-60 0 -80.5 18.5t-27.5 69.5q-3 18 -3 67t3 78q5 51 27.5 72.5t80.5 21.5q25 0 53.5 -7.5
t33.5 -15.5l11 -57h110l1 119q-18 22 -63 39t-98 23l1 63h-89z" />
    <glyph glyph-name="currency" unicode="&#xa4;" horiz-adv-x="705" 
d="M195 379q0 65 46 111t111 46t111.5 -46t46.5 -111t-46.5 -111.5t-111.5 -46.5t-111 46.5t-46 111.5zM40 128l66 -66l111 113q62 -41 135 -41q74 0 136 41l111 -113l66 66l-112 111q44 63 44 140q0 78 -44 139l110 109l-67 65l-108 -109q-62 40 -136 40q-73 0 -135 -40
l-108 109l-67 -65l109 -109q-43 -62 -43 -139q0 -76 43 -140z" />
    <glyph glyph-name="brokenbar" unicode="&#xa6;" horiz-adv-x="167" 
d="M0 315h125v391h-125v-391zM0 -190h125v401h-125v-401z" />
    <glyph glyph-name="dieresis" unicode="&#xa8;" horiz-adv-x="374" 
d="M166 646q0 -26 -18.5 -44.5t-44.5 -18.5t-44.5 18.5t-18.5 44.5t19 44.5t44 18.5q26 0 44.5 -18.5t18.5 -44.5zM333 646q0 -26 -18.5 -44.5t-44.5 -18.5t-44.5 18.5t-18.5 44.5t18.5 44.5t44.5 18.5t44.5 -18.5t18.5 -44.5z" />
    <glyph glyph-name="copyright" unicode="&#xa9;" horiz-adv-x="814" 
d="M394 128q112 0 177 31v94h-63l-15 -52q-27 -14 -85 -14q-51 0 -84 22.5t-34 72.5q-3 99 0 157q1 44 32.5 66.5t79.5 22.5q56 0 85 -11l13 -64h71v90q-71 39 -176 39q-91 0 -143 -51q-28 -29 -36 -63t-8 -113t8.5 -116t35.5 -64q47 -47 142 -47zM40 354q0 152 107.5 259.5
t259.5 107.5t259.5 -107.5t107.5 -259.5t-107.5 -259.5t-259.5 -107.5t-259.5 107.5t-107.5 259.5zM97 354q0 -128 91 -219t219 -91t218.5 91t90.5 219t-90.5 218.5t-218.5 90.5t-219 -90.5t-91 -218.5z" />
    <glyph glyph-name="registered" unicode="&#xae;" horiz-adv-x="410" 
d="M40 613q0 68 48.5 116.5t116.5 48.5t116 -48.5t48 -116.5t-48 -116t-116 -48t-116.5 48t-48.5 116zM73 613q0 -54 38.5 -93t93.5 -39q54 0 93 39t39 93q0 55 -39 93.5t-93 38.5q-55 0 -93.5 -38.5t-38.5 -93.5zM273 654q0 17 -10.5 30t-31.5 13h-96v-24l13 -4v-109
l-16 -4v-23h66v23l-16 4v42h27l24 -42l-12 -4v-23h63v23l-14 3l-28 44q31 8 31 42v9zM240 651q0 -12 -4.5 -17.5t-19.5 -5.5h-33v45h33q15 0 19.5 -5.5t4.5 -16.5z" />
    <glyph glyph-name="macron" unicode="&#xaf;" horiz-adv-x="595" 
d="M0 864v-104h554v104h-554z" />
    <glyph glyph-name="degree" unicode="&#xb0;" horiz-adv-x="373" 
d="M332 593q0 -61 -43 -103t-104 -42q-59 0 -102 42.5t-43 102.5t43 102.5t102 42.5q61 0 104 -42.5t43 -102.5zM279 593q0 39 -27 66.5t-67 27.5q-39 0 -66.5 -27.5t-27.5 -66.5q0 -40 27.5 -67t66.5 -27q40 0 67 27t27 67z" />
    <glyph glyph-name="acute" unicode="&#xb4;" horiz-adv-x="274" 
d="M66 689l166 1l-54 -119l-139 -1z" />
    <glyph glyph-name="paragraph" unicode="&#xb6;" horiz-adv-x="653" 
d="M491 706v-896h65v779l56 15v102h-121zM244 273h131v-463h65v896h-211q-48 0 -85.5 -19.5t-59.5 -51.5t-33 -67.5t-11 -70.5q0 -97 50 -160.5t154 -63.5z" />
    <glyph glyph-name="periodcentered" unicode="&#xb7;" horiz-adv-x="252" 
d="M40 354q0 -31 24.5 -53t60.5 -22q35 0 60 22t25 53t-25 53t-60 22q-36 0 -60.5 -22t-24.5 -53z" />
    <glyph glyph-name="cedilla" unicode="&#xb8;" horiz-adv-x="285" 
d="M235 -9h-115q11 -17 11 -31q0 -30 -91 -15l12 -63q45 -8 72 -8q87 0 114 62q11 26 -3 55z" />
    <glyph glyph-name="questiondown" unicode="&#xbf;" horiz-adv-x="586" 
d="M314 387q34 0 57 21t23 50t-23 50t-57 21t-57.5 -21t-23.5 -50t23.5 -50t57.5 -21zM144 147q-35 -25 -52.5 -40t-34.5 -46.5t-17 -69.5q0 -52 17 -89.5t40.5 -57t60.5 -31t66 -14t67 -2.5q41 0 68.5 2t66 13.5t61.5 32.5t40 61.5t18 97.5h-138q-3 -110 -116 -110
q-59 0 -86 20.5t-27 76.5q0 35 33 63q15 12 33 24q33 22 37 25q45 33 72 79t28 123h-129q-1 -54 -34 -95q-14 -16 -35 -34q-26 -20 -39 -29z" />
    <glyph glyph-name="Agrave" unicode="&#xc0;" horiz-adv-x="737" 
d="M285 297l71 270h11l72 -270h-154zM467 196l23 -77l-44 -18v-101h251v101l-60 18l-195 587h-152l-198 -587l-58 -18v-101h241v101l-42 18l22 77h212zM401 872l-166 1l54 -119l139 -1z" />
    <glyph glyph-name="Aacute" unicode="&#xc1;" horiz-adv-x="737" 
d="M285 297l71 270h11l72 -270h-154zM467 196l23 -77l-44 -18v-101h251v101l-60 18l-195 587h-152l-198 -587l-58 -18v-101h241v101l-42 18l22 77h212zM319 871l166 1l-54 -119l-139 -1z" />
    <glyph glyph-name="Acircumflex" unicode="&#xc2;" horiz-adv-x="737" 
d="M285 297l71 270h11l72 -270h-154zM467 196l23 -77l-44 -18v-101h251v101l-60 18l-195 587h-152l-198 -587l-58 -18v-101h241v101l-42 18l22 77h212zM391 753l126 -1l-64 120h-173l-64 -120l126 1l24 89z" />
    <glyph glyph-name="Atilde" unicode="&#xc3;" horiz-adv-x="737" 
d="M285 297l71 270h11l72 -270h-154zM467 196l23 -77l-44 -18v-101h251v101l-60 18l-195 587h-152l-198 -587l-58 -18v-101h241v101l-42 18l22 77h212zM279 803q18 1 77 -28.5t100 -27.5q62 3 116 68l-50 85q-3 -3 -11 -12.5l-13 -15t-13 -12.5t-16.5 -11t-17.5 -4
q-28 -2 -79.5 28.5t-101.5 27.5q-29 -1 -53.5 -14.5t-35.5 -25.5t-26 -32l51 -86q11 17 32.5 38t40.5 22z" />
    <glyph glyph-name="Adieresis" unicode="&#xc4;" horiz-adv-x="737" 
d="M285 297l71 270h11l72 -270h-154zM467 196l23 -77l-44 -18v-101h251v101l-60 18l-195 587h-152l-198 -587l-58 -18v-101h241v101l-42 18l22 77h212zM346 807q0 -26 -18.5 -44.5t-44.5 -18.5t-44.5 18.5t-18.5 44.5q0 25 19 44t44 19q26 0 44.5 -18.5t18.5 -44.5zM513 807
q0 -26 -18.5 -44.5t-44.5 -18.5t-44.5 18.5t-18.5 44.5q0 25 18.5 44t44.5 19t44.5 -18.5t18.5 -44.5z" />
    <glyph glyph-name="Aring" unicode="&#xc5;" horiz-adv-x="737" 
d="M285 297l71 270h11l72 -270h-154zM467 196l23 -77l-44 -18v-101h251v101l-60 18l-195 587h-152l-198 -587l-58 -18v-101h241v101l-42 18l22 77h212zM454 840q0 -37 -25.5 -62t-62.5 -25q-36 0 -61.5 25.5t-25.5 61.5t26 61.5t61 25.5q37 0 62.5 -25.5t25.5 -61.5z
M414 840q0 20 -13.5 34t-34.5 14q-20 0 -34 -14t-14 -34q0 -21 14 -34.5t34 -13.5q21 0 34.5 13.5t13.5 34.5z" />
    <glyph glyph-name="AE" unicode="&#xc6;" horiz-adv-x="1010" 
d="M336 297l144 270h26l-1 -270h-169zM492 196v-77l-57 -18v-101h535v182h-107l-23 -72h-229v191h115l26 -36h82v186h-82l-26 -36h-115v189h227l25 -80h107v182h-528l-347 -587l-59 -18v-101h238v101l-38 18l43 77h213z" />
    <glyph glyph-name="Ccedilla" unicode="&#xc7;" horiz-adv-x="647" 
d="M437 -9h-1q97 10 170 46v153l-111 -1l-22 -68q-38 -22 -130 -22q-156 0 -160 146q-4 125 0 235q2 69 41.5 102.5t109.5 33.5q85 0 130 -16l19 -87h123l-1 147q-110 61 -280 61q-130 0 -212 -82q-45 -46 -59 -102t-14 -182q0 -128 14 -187.5t59 -104.5q71 -72 199 -76
q11 -13 11 -27q0 -27 -93 -9l14 -73q41 -8 78 -8q87 1 117 64q12 27 -2 57z" />
    <glyph glyph-name="Egrave" unicode="&#xc8;" horiz-adv-x="653" 
d="M476 524h107v182h-548v-102l56 -15v-470l-67 -18v-101h559v182h-107l-23 -72h-229v194h115l26 -36h82v183h-82l-26 -36h-115v189h227zM380 871l-166 1l54 -119l139 -1z" />
    <glyph glyph-name="Eacute" unicode="&#xc9;" horiz-adv-x="653" 
d="M476 524h107v182h-548v-102l56 -15v-470l-67 -18v-101h559v182h-107l-23 -72h-229v194h115l26 -36h82v183h-82l-26 -36h-115v189h227zM295 871l166 1l-54 -119l-139 -1z" />
    <glyph glyph-name="Ecircumflex" unicode="&#xca;" horiz-adv-x="653" 
d="M476 524h107v182h-548v-102l56 -15v-470l-67 -18v-101h559v182h-107l-23 -72h-229v194h115l26 -36h82v183h-82l-26 -36h-115v189h227zM366 754l126 -1l-64 120h-173l-64 -120l126 1l24 89z" />
    <glyph glyph-name="Edieresis" unicode="&#xcb;" horiz-adv-x="653" 
d="M476 524h107v182h-548v-102l56 -15v-470l-67 -18v-101h559v182h-107l-23 -72h-229v194h115l26 -36h82v183h-82l-26 -36h-115v189h227zM323 807q0 -26 -18.5 -44.5t-44.5 -18.5t-44.5 18.5t-18.5 44.5q0 25 18.5 44t44.5 19t44.5 -18.5t18.5 -44.5zM490 807
q0 -26 -18.5 -44.5t-44.5 -18.5t-44.5 18.5t-18.5 44.5q0 25 19 44t44 19q26 0 44.5 -18.5t18.5 -44.5z" />
    <glyph glyph-name="Igrave" unicode="&#xcc;" horiz-adv-x="357" 
d="M289 0v101l-66 18v470l58 15v102h-247v-102l57 -15v-470l-67 -18v-101h265zM227 871l-166 1l54 -119l139 -1z" />
    <glyph glyph-name="Iacute" unicode="&#xcd;" horiz-adv-x="357" 
d="M289 0v101l-66 18v470l58 15v102h-247v-102l57 -15v-470l-67 -18v-101h265zM129 872l166 1l-54 -119l-139 -1z" />
    <glyph glyph-name="Icircumflex" unicode="&#xce;" horiz-adv-x="357" 
d="M289 0v101l-66 18v470l58 15v102h-247v-102l57 -15v-470l-67 -18v-101h265zM201 754l126 -1l-64 120h-173l-64 -120l126 1l24 89z" />
    <glyph glyph-name="Idieresis" unicode="&#xcf;" horiz-adv-x="357" 
d="M289 0v101l-66 18v470l58 15v102h-247v-102l57 -15v-470l-67 -18v-101h265zM155 807q0 -26 -18.5 -44.5t-44.5 -18.5t-44.5 18.5t-18.5 44.5q0 25 18.5 44t44.5 19t44.5 -18.5t18.5 -44.5zM322 807q0 -26 -18.5 -44.5t-44.5 -18.5t-44.5 18.5t-18.5 44.5q0 25 19 44
t44 19q26 0 44.5 -18.5t18.5 -44.5z" />
    <glyph glyph-name="Ntilde" unicode="&#xd1;" horiz-adv-x="801" 
d="M515 0h170v589l57 15v102h-246v-102l59 -15v-155q0 -39 2.5 -100t4.5 -103l3 -42h-8q-16 47 -38 89l-221 428h-253v-102l56 -15v-470l-67 -18v-101h263v101l-66 18v205l-8 247h9q14 -40 31 -74zM310 803q18 1 77 -28.5t100 -27.5q62 3 116 68l-50 85q-3 -3 -11 -12.5
l-13 -15t-13 -12.5t-16.5 -11t-17.5 -4q-28 -2 -79.5 28.5t-101.5 27.5q-29 -1 -53.5 -14.5t-35.5 -25.5t-26 -32l51 -86q11 17 32.5 38t40.5 22z" />
    <glyph glyph-name="Ograve" unicode="&#xd2;" horiz-adv-x="723" 
d="M113 63q43 -44 99 -60t144 -16q89 0 145 16t100 60q44 45 58 105t14 187t-13.5 182.5t-59.5 101.5t-103.5 64t-140.5 18t-141 -18t-102 -64q-46 -46 -59.5 -101.5t-13.5 -182.5q0 -129 14 -188.5t59 -103.5zM182 487q3 62 53 95t121 33q73 0 124 -33t52 -95
q3 -122 3 -129q-2 -112 -4 -130q-12 -127 -175 -127q-161 0 -173 127q-4 41 -4 130q0 70 3 129zM402 872l-166 1l54 -119l139 -1z" />
    <glyph glyph-name="Oacute" unicode="&#xd3;" horiz-adv-x="723" 
d="M113 63q43 -44 99 -60t144 -16q89 0 145 16t100 60q44 45 58 105t14 187t-13.5 182.5t-59.5 101.5t-103.5 64t-140.5 18t-141 -18t-102 -64q-46 -46 -59.5 -101.5t-13.5 -182.5q0 -129 14 -188.5t59 -103.5zM182 487q3 62 53 95t121 33q73 0 124 -33t52 -95
q3 -122 3 -129q-2 -112 -4 -130q-12 -127 -175 -127q-161 0 -173 127q-4 41 -4 130q0 70 3 129zM301 872l166 1l-54 -119l-139 -1z" />
    <glyph glyph-name="Ocircumflex" unicode="&#xd4;" horiz-adv-x="723" 
d="M113 63q43 -44 99 -60t144 -16q89 0 145 16t100 60q44 45 58 105t14 187t-13.5 182.5t-59.5 101.5t-103.5 64t-140.5 18t-141 -18t-102 -64q-46 -46 -59.5 -101.5t-13.5 -182.5q0 -129 14 -188.5t59 -103.5zM182 487q3 62 53 95t121 33q73 0 124 -33t52 -95
q3 -122 3 -129q-2 -112 -4 -130q-12 -127 -175 -127q-161 0 -173 127q-4 41 -4 130q0 70 3 129zM383 754l126 -1l-64 120h-173l-64 -120l126 1l24 89z" />
    <glyph glyph-name="Otilde" unicode="&#xd5;" horiz-adv-x="723" 
d="M113 63q43 -44 99 -60t144 -16q89 0 145 16t100 60q44 45 58 105t14 187t-13.5 182.5t-59.5 101.5t-103.5 64t-140.5 18t-141 -18t-102 -64q-46 -46 -59.5 -101.5t-13.5 -182.5q0 -129 14 -188.5t59 -103.5zM182 487q3 62 53 95t121 33q73 0 124 -33t52 -95
q3 -122 3 -129q-2 -112 -4 -130q-12 -127 -175 -127q-161 0 -173 127q-4 41 -4 130q0 70 3 129zM273 804q18 1 77 -28.5t100 -27.5q62 3 116 68l-50 85q-3 -3 -11 -12.5l-13 -15t-13 -12.5t-16.5 -11t-17.5 -4q-28 -2 -79.5 28.5t-101.5 27.5q-29 -1 -53.5 -14.5
t-35.5 -25.5t-26 -32l51 -86q11 17 32.5 38t40.5 22z" />
    <glyph glyph-name="Odieresis" unicode="&#xd6;" horiz-adv-x="723" 
d="M113 63q43 -44 99 -60t144 -16q89 0 145 16t100 60q44 45 58 105t14 187t-13.5 182.5t-59.5 101.5t-103.5 64t-140.5 18t-141 -18t-102 -64q-46 -46 -59.5 -101.5t-13.5 -182.5q0 -129 14 -188.5t59 -103.5zM182 487q3 62 53 95t121 33q73 0 124 -33t52 -95
q3 -122 3 -129q-2 -112 -4 -130q-12 -127 -175 -127q-161 0 -173 127q-4 41 -4 130q0 70 3 129zM335 806q0 -26 -18.5 -44.5t-44.5 -18.5t-44.5 18.5t-18.5 44.5t18.5 44.5t44.5 18.5t44.5 -18.5t18.5 -44.5zM502 806q0 -26 -18.5 -44.5t-44.5 -18.5t-44.5 18.5t-18.5 44.5
t19 44.5t44 18.5q26 0 44.5 -18.5t18.5 -44.5z" />
    <glyph glyph-name="Oslash" unicode="&#xd8;" horiz-adv-x="743" 
d="M98 101l-58 -66l55 -49l53 60q41 -34 93.5 -46.5t131.5 -12.5q89 0 145 16t100 60q44 45 58 105t14 187q0 107 -9 160.5t-36 91.5l58 66l-55 49l-55 -61q-77 60 -220 60q-83 0 -140.5 -18t-102.5 -63q-46 -47 -59.5 -102.5t-13.5 -182.5q0 -104 8.5 -160t32.5 -94z
M235 143l316 357v-3v-5v-4q3 -123 3 -130q-2 -112 -4 -131q-13 -128 -177 -128q-94 0 -138 44zM197 488q3 63 53.5 96.5t122.5 33.5q93 0 141 -47l-315 -356l-1 5v7q-4 42 -4 131q0 71 3 130z" />
    <glyph glyph-name="Ugrave" unicode="&#xd9;" horiz-adv-x="797" 
d="M155 63q40 -43 95.5 -59.5t138.5 -16.5q82 0 137.5 16.5t95.5 59.5q40 44 52 104t12 190v232l57 15v102h-249v-102l59 -15v-232q0 -99 -3 -130q-10 -124 -161 -124q-148 0 -161 124q-4 41 -4 130v232l59 15v102h-249v-102l57 -15v-232q0 -130 12 -190t52 -104zM432 872
l-166 1l54 -119l139 -1z" />
    <glyph glyph-name="Uacute" unicode="&#xda;" horiz-adv-x="797" 
d="M155 63q40 -43 95.5 -59.5t138.5 -16.5q82 0 137.5 16.5t95.5 59.5q40 44 52 104t12 190v232l57 15v102h-249v-102l59 -15v-232q0 -99 -3 -130q-10 -124 -161 -124q-148 0 -161 124q-4 41 -4 130v232l59 15v102h-249v-102l57 -15v-232q0 -130 12 -190t52 -104zM356 872
l166 1l-54 -119l-139 -1z" />
    <glyph glyph-name="Ucircumflex" unicode="&#xdb;" horiz-adv-x="797" 
d="M155 63q40 -43 95.5 -59.5t138.5 -16.5q82 0 137.5 16.5t95.5 59.5q40 44 52 104t12 190v232l57 15v102h-249v-102l59 -15v-232q0 -99 -3 -130q-10 -124 -161 -124q-148 0 -161 124q-4 41 -4 130v232l59 15v102h-249v-102l57 -15v-232q0 -130 12 -190t52 -104zM419 754
l126 -1l-64 120h-173l-64 -120l126 1l24 89z" />
    <glyph glyph-name="Udieresis" unicode="&#xdc;" horiz-adv-x="797" 
d="M155 63q40 -43 95.5 -59.5t138.5 -16.5q82 0 137.5 16.5t95.5 59.5q40 44 52 104t12 190v232l57 15v102h-249v-102l59 -15v-232q0 -99 -3 -130q-10 -124 -161 -124q-148 0 -161 124q-4 41 -4 130v232l59 15v102h-249v-102l57 -15v-232q0 -130 12 -190t52 -104zM372 807
q0 -26 -18.5 -44.5t-44.5 -18.5t-44.5 18.5t-18.5 44.5q0 25 19 44t44 19q26 0 44.5 -18.5t18.5 -44.5zM539 807q0 -26 -18.5 -44.5t-44.5 -18.5t-44.5 18.5t-18.5 44.5q0 25 18.5 44t44.5 19t44.5 -18.5t18.5 -44.5z" />
    <glyph glyph-name="agrave" unicode="&#xe0;" 
d="M356 370v-41q-144 0 -230 -44.5t-86 -134.5q0 -87 44 -123t128 -36q116 0 143 86h5v-73h176v101l-53 18v237q0 47 -18 81.5t-49 54t-66 28.5t-75 9q-57 0 -107 -12t-72 -25l-21 -12l2 -117h112l11 57q7 4 35 7.5t42 3.5q79 0 79 -65zM356 238v-56q0 -36 -28.5 -63.5
t-77.5 -27.5q-78 0 -78 57q0 90 184 90zM309 689l-166 1l54 -119l139 -1z" />
    <glyph glyph-name="aacute" unicode="&#xe1;" 
d="M356 370v-41q-144 0 -230 -44.5t-86 -134.5q0 -87 44 -123t128 -36q116 0 143 86h5v-73h176v101l-53 18v237q0 47 -18 81.5t-49 54t-66 28.5t-75 9q-57 0 -107 -12t-72 -25l-21 -12l2 -117h112l11 57q7 4 35 7.5t42 3.5q79 0 79 -65zM356 238v-56q0 -36 -28.5 -63.5
t-77.5 -27.5q-78 0 -78 57q0 90 184 90zM230 689l166 1l-54 -119l-139 -1z" />
    <glyph glyph-name="acircumflex" unicode="&#xe2;" 
d="M356 370v-41q-144 0 -230 -44.5t-86 -134.5q0 -87 44 -123t128 -36q116 0 143 86h5v-73h176v101l-53 18v237q0 47 -18 81.5t-49 54t-66 28.5t-75 9q-57 0 -107 -12t-72 -25l-21 -12l2 -117h112l11 57q7 4 35 7.5t42 3.5q79 0 79 -65zM356 238v-56q0 -36 -28.5 -63.5
t-77.5 -27.5q-78 0 -78 57q0 90 184 90zM300 571l126 -1l-64 120h-173l-64 -120l126 1l24 89z" />
    <glyph glyph-name="atilde" unicode="&#xe3;" 
d="M356 370v-41q-144 0 -230 -44.5t-86 -134.5q0 -87 44 -123t128 -36q116 0 143 86h5v-73h176v101l-53 18v237q0 47 -18 81.5t-49 54t-66 28.5t-75 9q-57 0 -107 -12t-72 -25l-21 -12l2 -117h112l11 57q7 4 35 7.5t42 3.5q79 0 79 -65zM356 238v-56q0 -36 -28.5 -63.5
t-77.5 -27.5q-78 0 -78 57q0 90 184 90zM193 637q18 1 77 -28.5t100 -27.5q62 3 116 68l-50 85q-3 -3 -11 -12.5l-13 -15t-13 -12.5t-16.5 -11t-17.5 -4q-28 -2 -79.5 28.5t-101.5 27.5q-29 -1 -53.5 -14.5t-35.5 -25.5t-26 -32l51 -86q11 17 32.5 38t40.5 22z" />
    <glyph glyph-name="adieresis" unicode="&#xe4;" 
d="M356 370v-41q-144 0 -230 -44.5t-86 -134.5q0 -87 44 -123t128 -36q116 0 143 86h5v-73h176v101l-53 18v237q0 47 -18 81.5t-49 54t-66 28.5t-75 9q-57 0 -107 -12t-72 -25l-21 -12l2 -117h112l11 57q7 4 35 7.5t42 3.5q79 0 79 -65zM356 238v-56q0 -36 -28.5 -63.5
t-77.5 -27.5q-78 0 -78 57q0 90 184 90zM255 646q0 -26 -18.5 -44.5t-44.5 -18.5t-44.5 18.5t-18.5 44.5t19 44.5t44 18.5q26 0 44.5 -18.5t18.5 -44.5zM422 646q0 -26 -18.5 -44.5t-44.5 -18.5t-44.5 18.5t-18.5 44.5t18.5 44.5t44.5 18.5t44.5 -18.5t18.5 -44.5z" />
    <glyph glyph-name="aring" unicode="&#xe5;" 
d="M356 370v-41q-144 0 -230 -44.5t-86 -134.5q0 -87 44 -123t128 -36q116 0 143 86h5v-73h176v101l-53 18v237q0 47 -18 81.5t-49 54t-66 28.5t-75 9q-57 0 -107 -12t-72 -25l-21 -12l2 -117h112l11 57q7 4 35 7.5t42 3.5q79 0 79 -65zM356 238v-56q0 -36 -28.5 -63.5
t-77.5 -27.5q-78 0 -78 57q0 90 184 90zM364 658q0 -37 -25.5 -62t-62.5 -25q-36 0 -61.5 25.5t-25.5 61.5t26 61.5t61 25.5q37 0 62.5 -25.5t25.5 -61.5zM324 658q0 20 -13.5 34t-34.5 14q-20 0 -34 -14t-14 -34q0 -21 14 -34.5t34 -13.5q21 0 34.5 13.5t13.5 34.5z" />
    <glyph glyph-name="ae" unicode="&#xe6;" horiz-adv-x="883" 
d="M487 319v15q0 40 34 67t80 27q45 0 79.5 -27t34.5 -67v-15h-228zM843 228v52q0 121 -60.5 185t-180.5 64q-109 0 -160 -59q-56 59 -167 59q-57 0 -107 -12t-72 -25l-21 -12l2 -116h112l11 57q7 4 35 7.5t42 3.5q13 0 26 -2.5t27 -8.5t23 -20t9 -34v-41q-145 0 -233.5 -44
t-88.5 -133q0 -87 52 -122.5t151 -35.5q127 0 180 63q43 -48 121 -59q23 -4 57 -4h1q127 0 184 50t57 132h-131q0 -36 -32 -57t-78 -21q-49 0 -82 26t-33 90v17h356zM362 236v-56q0 -34 -31.5 -62t-80.5 -28q-78 0 -78 57q0 89 190 89z" />
    <glyph glyph-name="ccedilla" unicode="&#xe7;" horiz-adv-x="545" 
d="M363 -3q109 17 133 107q4 12 5 29t1 29l-1 11h-120q0 -44 -21.5 -59t-79.5 -15q-60 0 -80.5 18t-27.5 69q-3 19 -3 67.5t3 77.5q5 51 27.5 72.5t80.5 21.5q25 0 53.5 -7.5t33.5 -15.5l11 -57h110l1 119q-23 28 -84 46.5t-125 18.5q-222 0 -236 -194q-7 -100 0 -152
q5 -47 16 -78.5t33.5 -57.5t61 -39t96.5 -16q12 -15 12 -32q0 -30 -91 -15l12 -63q45 -8 72 -8q87 0 114 62q6 12 4 30.5t-11 30.5z" />
    <glyph glyph-name="egrave" unicode="&#xe8;" horiz-adv-x="569" 
d="M528 228h-357v-17q0 -64 33.5 -90t81.5 -26q46 0 78 21t32 57h131q0 -82 -57 -132t-184 -50q-125 0 -183.5 57t-60.5 149q-3 107 0 137q7 85 69.5 140t174.5 55q121 0 181.5 -64t60.5 -185v-52zM171 319h228v15q0 40 -34.5 67t-79.5 27q-46 0 -80 -27t-34 -67v-15z
M323 689l-166 1l54 -119l139 -1z" />
    <glyph glyph-name="eacute" unicode="&#xe9;" horiz-adv-x="569" 
d="M528 228h-357v-17q0 -64 33.5 -90t81.5 -26q46 0 78 21t32 57h131q0 -82 -57 -132t-184 -50q-125 0 -183.5 57t-60.5 149q-3 107 0 137q7 85 69.5 140t174.5 55q121 0 181.5 -64t60.5 -185v-52zM171 319h228v15q0 40 -34.5 67t-79.5 27q-46 0 -80 -27t-34 -67v-15z
M240 689l166 1l-54 -119l-139 -1z" />
    <glyph glyph-name="ecircumflex" unicode="&#xea;" horiz-adv-x="569" 
d="M528 228h-357v-17q0 -64 33.5 -90t81.5 -26q46 0 78 21t32 57h131q0 -82 -57 -132t-184 -50q-125 0 -183.5 57t-60.5 149q-3 107 0 137q7 85 69.5 140t174.5 55q121 0 181.5 -64t60.5 -185v-52zM171 319h228v15q0 40 -34.5 67t-79.5 27q-46 0 -80 -27t-34 -67v-15z
M311 571l126 -1l-64 120h-173l-64 -120l126 1l24 89z" />
    <glyph glyph-name="edieresis" unicode="&#xeb;" horiz-adv-x="569" 
d="M528 228h-357v-17q0 -64 33.5 -90t81.5 -26q46 0 78 21t32 57h131q0 -82 -57 -132t-184 -50q-125 0 -183.5 57t-60.5 149q-3 107 0 137q7 85 69.5 140t174.5 55q121 0 181.5 -64t60.5 -185v-52zM171 319h228v15q0 40 -34.5 67t-79.5 27q-46 0 -80 -27t-34 -67v-15z
M263 646q0 -26 -18.5 -44.5t-44.5 -18.5t-44.5 18.5t-18.5 44.5t19 44.5t44 18.5q26 0 44.5 -18.5t18.5 -44.5zM430 646q0 -26 -18.5 -44.5t-44.5 -18.5t-44.5 18.5t-18.5 44.5t18.5 44.5t44.5 18.5t44.5 -18.5t18.5 -44.5z" />
    <glyph glyph-name="igrave" unicode="&#xec;" horiz-adv-x="303" 
d="M232 101l-44 18v401h-161v-99l35 -13v-289l-44 -18v-101h214v101zM173 689l-166 1l54 -119l139 -1z" />
    <glyph glyph-name="iacute" unicode="&#xed;" horiz-adv-x="303" 
d="M232 101l-44 18v401h-161v-99l35 -13v-289l-44 -18v-101h214v101zM91 689l166 1l-54 -119l-139 -1z" />
    <glyph glyph-name="icircumflex" unicode="&#xee;" horiz-adv-x="303" 
d="M232 101l-44 18v401h-161v-99l35 -13v-289l-44 -18v-101h214v101zM170 571l126 -1l-64 120h-173l-64 -120l126 1l24 89z" />
    <glyph glyph-name="idieresis" unicode="&#xef;" horiz-adv-x="303" 
d="M232 101l-44 18v401h-161v-99l35 -13v-289l-44 -18v-101h214v101zM125 646q0 -26 -18.5 -44.5t-44.5 -18.5t-44.5 18.5t-18.5 44.5t18.5 44.5t44.5 18.5t44.5 -18.5t18.5 -44.5zM292 646q0 -26 -18.5 -44.5t-44.5 -18.5t-44.5 18.5t-18.5 44.5t19 44.5t44 18.5
q26 0 44.5 -18.5t18.5 -44.5z" />
    <glyph glyph-name="ntilde" unicode="&#xf1;" horiz-adv-x="631" 
d="M522 119v217q0 80 -51 136.5t-121 56.5q-45 0 -89.5 -25.5t-58.5 -56.5v73h-161v-99l35 -13v-289l-46 -18v-101h219v101l-47 18v194q0 53 25 73t70 21q97 2 97 -94v-313h177v101zM202 637q18 1 77 -28.5t100 -27.5q62 3 116 68l-50 85q-3 -3 -11 -12.5l-13 -15t-13 -12.5
t-16.5 -11t-17.5 -4q-28 -2 -79.5 28.5t-101.5 27.5q-29 -1 -53.5 -14.5t-35.5 -25.5t-26 -32l51 -86q11 17 32.5 38t40.5 22z" />
    <glyph glyph-name="ograve" unicode="&#xf2;" horiz-adv-x="585" 
d="M532 334q-6 85 -69 140t-174 55q-113 0 -176.5 -55t-70.5 -140q-3 -30 0 -137q5 -106 64.5 -156t182.5 -50q120 0 177.5 49.5t65.5 156.5q5 74 0 137zM405 179q-4 -39 -36.5 -61.5t-79.5 -22.5q-49 0 -80 22t-38 62q-9 52 0 160q3 40 36 65t82 25q47 0 81 -25t36 -65
q2 -27 1.5 -82.5t-2.5 -77.5zM321 689l-166 1l54 -119l139 -1z" />
    <glyph glyph-name="oacute" unicode="&#xf3;" horiz-adv-x="585" 
d="M532 334q-6 85 -69 140t-174 55q-113 0 -176.5 -55t-70.5 -140q-3 -30 0 -137q5 -106 64.5 -156t182.5 -50q120 0 177.5 49.5t65.5 156.5q5 74 0 137zM405 179q-4 -39 -36.5 -61.5t-79.5 -22.5q-49 0 -80 22t-38 62q-9 52 0 160q3 40 36 65t82 25q47 0 81 -25t36 -65
q2 -27 1.5 -82.5t-2.5 -77.5zM246 689l166 1l-54 -119l-139 -1z" />
    <glyph glyph-name="ocircumflex" unicode="&#xf4;" horiz-adv-x="585" 
d="M532 334q-6 85 -69 140t-174 55q-113 0 -176.5 -55t-70.5 -140q-3 -30 0 -137q5 -106 64.5 -156t182.5 -50q120 0 177.5 49.5t65.5 156.5q5 74 0 137zM405 179q-4 -39 -36.5 -61.5t-79.5 -22.5q-49 0 -80 22t-38 62q-9 52 0 160q3 40 36 65t82 25q47 0 81 -25t36 -65
q2 -27 1.5 -82.5t-2.5 -77.5zM314 571l126 -1l-64 120h-173l-64 -120l126 1l24 89z" />
    <glyph glyph-name="otilde" unicode="&#xf5;" horiz-adv-x="585" 
d="M532 334q-6 85 -69 140t-174 55q-113 0 -176.5 -55t-70.5 -140q-3 -30 0 -137q5 -106 64.5 -156t182.5 -50q120 0 177.5 49.5t65.5 156.5q5 74 0 137zM405 179q-4 -39 -36.5 -61.5t-79.5 -22.5q-49 0 -80 22t-38 62q-9 52 0 160q3 40 36 65t82 25q47 0 81 -25t36 -65
q2 -27 1.5 -82.5t-2.5 -77.5zM202 637q18 1 77 -28.5t100 -27.5q62 3 116 68l-50 85q-3 -3 -11 -12.5l-13 -15t-13 -12.5t-16.5 -11t-17.5 -4q-28 -2 -79.5 28.5t-101.5 27.5q-29 -1 -53.5 -14.5t-35.5 -25.5t-26 -32l51 -86q11 17 32.5 38t40.5 22z" />
    <glyph glyph-name="odieresis" unicode="&#xf6;" horiz-adv-x="585" 
d="M532 334q-6 85 -69 140t-174 55q-113 0 -176.5 -55t-70.5 -140q-3 -30 0 -137q5 -106 64.5 -156t182.5 -50q120 0 177.5 49.5t65.5 156.5q5 74 0 137zM405 179q-4 -39 -36.5 -61.5t-79.5 -22.5q-49 0 -80 22t-38 62q-9 52 0 160q3 40 36 65t82 25q47 0 81 -25t36 -65
q2 -27 1.5 -82.5t-2.5 -77.5zM266 646q0 -26 -18.5 -44.5t-44.5 -18.5t-44.5 18.5t-18.5 44.5t19 44.5t44 18.5q26 0 44.5 -18.5t18.5 -44.5zM433 646q0 -26 -18.5 -44.5t-44.5 -18.5t-44.5 18.5t-18.5 44.5t18.5 44.5t44.5 18.5t44.5 -18.5t18.5 -44.5z" />
    <glyph glyph-name="divide" unicode="&#xf7;" horiz-adv-x="251" 
d="M39 410q0 -31 24.5 -53t60.5 -22q35 0 60 22t25 53t-25 53t-60 22q-36 0 -60.5 -22t-24.5 -53zM39 64q0 -31 24.5 -53t60.5 -22q35 0 60 22t25 53t-25 53t-60 22q-36 0 -60.5 -22t-24.5 -53z" />
    <glyph glyph-name="oslash" unicode="&#xf8;" horiz-adv-x="579" 
d="M530 335q-5 58 -33 99l41 46l-48 43l-37 -42q-64 48 -165 48q-112 0 -175.5 -54.5t-70.5 -139.5q-3 -31 0 -138q5 -87 42 -133l-38 -43l48 -43l39 44q58 -31 155 -31q120 0 177 49.5t65 156.5q4 50 0 138zM382 401l-214 -242q-1 2 -2 8t-1 8q-9 48 0 168q3 41 37.5 67
t85.5 26q52 0 89 -29q4 -4 5 -6zM408 175q-4 -40 -37.5 -63t-82.5 -23q-44 0 -73 15q-1 0 -3 1.5t-3 2.5l201 227v-9q4 -92 -2 -151z" />
    <glyph glyph-name="ugrave" unicode="&#xf9;" horiz-adv-x="626" 
d="M569 101l-46 18v401h-163v-99l36 -13v-206q0 -42 -29 -68t-68 -26q-103 0 -103 94v318h-163v-99l36 -13v-258q0 -61 47.5 -110t131.5 -49q115 0 148 80h3v-71h170v101zM321 689l-166 1l54 -119l139 -1z" />
    <glyph glyph-name="uacute" unicode="&#xfa;" horiz-adv-x="626" 
d="M569 101l-46 18v401h-163v-99l36 -13v-206q0 -42 -29 -68t-68 -26q-103 0 -103 94v318h-163v-99l36 -13v-258q0 -61 47.5 -110t131.5 -49q115 0 148 80h3v-71h170v101zM246 689l166 1l-54 -119l-139 -1z" />
    <glyph glyph-name="ucircumflex" unicode="&#xfb;" horiz-adv-x="626" 
d="M569 101l-46 18v401h-163v-99l36 -13v-206q0 -42 -29 -68t-68 -26q-103 0 -103 94v318h-163v-99l36 -13v-258q0 -61 47.5 -110t131.5 -49q115 0 148 80h3v-71h170v101zM311 571l126 -1l-64 120h-173l-64 -120l126 1l24 89z" />
    <glyph glyph-name="udieresis" unicode="&#xfc;" horiz-adv-x="626" 
d="M569 101l-46 18v401h-163v-99l36 -13v-206q0 -42 -29 -68t-68 -26q-103 0 -103 94v318h-163v-99l36 -13v-258q0 -61 47.5 -110t131.5 -49q115 0 148 80h3v-71h170v101zM266 646q0 -26 -18.5 -44.5t-44.5 -18.5t-44.5 18.5t-18.5 44.5t19 44.5t44 18.5q26 0 44.5 -18.5
t18.5 -44.5zM433 646q0 -26 -18.5 -44.5t-44.5 -18.5t-44.5 18.5t-18.5 44.5t18.5 44.5t44.5 18.5t44.5 -18.5t18.5 -44.5z" />
    <glyph glyph-name="ydieresis" unicode="&#xff;" horiz-adv-x="643" 
d="M73 408l180 -394q-44 -110 -91 -204h147q70 198 154 401l44.5 102.5t39.5 94.5l47 13v99h-216v-99l40 -13q-27 -78 -104 -255q-100 241 -105 255l40 13v99h-215v-99zM296 646q0 -26 -18.5 -44.5t-44.5 -18.5t-44.5 18.5t-18.5 44.5t19 44.5t44 18.5q26 0 44.5 -18.5
t18.5 -44.5zM463 646q0 -26 -18.5 -44.5t-44.5 -18.5t-44.5 18.5t-18.5 44.5t18.5 44.5t44.5 18.5t44.5 -18.5t18.5 -44.5z" />
    <glyph glyph-name="dotlessi" unicode="&#x131;" horiz-adv-x="273" 
d="M232 101l-44 18v401h-161v-99l35 -13v-289l-44 -18v-101h214v101z" />
    <glyph glyph-name="OE" unicode="&#x152;" horiz-adv-x="957" 
d="M427 114q-35 -7 -70 -7q-166 0 -178 124q-5 40 -5 126q0 49 4 125q3 60 54.5 92.5t124.5 32.5q37 0 70 -9v-484zM810 524h107v182h-561q-83 0 -141 -17t-102 -61q-46 -45 -59.5 -98.5t-13.5 -175.5q0 -124 14 -181t59 -100q43 -42 99 -57.5t144 -15.5h2h559v182h-107
l-23 -72h-229v191h115l25 -36h83v186h-83l-25 -36h-115v189h226z" />
    <glyph glyph-name="oe" unicode="&#x153;" horiz-adv-x="928" 
d="M404 179q-4 -39 -36.5 -61.5t-79.5 -22.5q-49 0 -80 22t-38 62q-9 46 0 160q3 40 36 65t82 25q46 0 80.5 -25t36.5 -65q2 -27 1.5 -82.5t-2.5 -77.5zM888 228v52q0 121 -60.5 185t-181.5 64q-114 0 -179 -70q-66 70 -179 70q-112 0 -175.5 -55t-70.5 -140q-3 -30 0 -137
q5 -106 64 -156t182 -50q127 0 180 63q55 -63 178 -63q127 0 184 50t57 132h-131q0 -36 -32 -57t-78 -21q-48 0 -81.5 26t-33.5 90v17h357zM531 319v15q0 40 34 67t80 27q45 0 79.5 -27t34.5 -67v-15h-228z" />
    <glyph glyph-name="Ydieresis" unicode="&#x178;" horiz-adv-x="721" 
d="M431 266l176 323l61 15v102h-240v-102l50 -15l-114 -210l-122 210l51 15v102h-260v-102l59 -15l193 -327v-143l-67 -18v-101h280v101l-67 18v147zM346 807q0 -26 -18.5 -44.5t-44.5 -18.5t-44.5 18.5t-18.5 44.5q0 25 19 44t44 19q26 0 44.5 -18.5t18.5 -44.5zM513 807
q0 -26 -18.5 -44.5t-44.5 -18.5t-44.5 18.5t-18.5 44.5q0 25 18.5 44t44.5 19t44.5 -18.5t18.5 -44.5z" />
    <glyph glyph-name="circumflex" unicode="&#x2c6;" horiz-adv-x="382" 
d="M215 571l126 -1l-64 120h-173l-64 -120l126 1l24 89z" />
    <glyph glyph-name="ring" unicode="&#x2da;" horiz-adv-x="257" 
d="M215 638q0 -37 -25.5 -62t-62.5 -25q-36 0 -61.5 25.5t-25.5 61.5t26 61.5t61 25.5q37 0 62.5 -25.5t25.5 -61.5zM175 638q0 20 -13.5 34t-34.5 14q-20 0 -34 -14t-14 -34q0 -21 14 -34.5t34 -13.5q21 0 34.5 13.5t13.5 34.5z" />
    <glyph glyph-name="tilde" unicode="&#x2dc;" horiz-adv-x="498" 
d="M164 637q18 1 77 -28.5t100 -27.5q62 3 116 68l-50 85q-3 -3 -11 -12.5l-13 -15t-13 -12.5t-16.5 -11t-17.5 -4q-28 -2 -79.5 28.5t-101.5 27.5q-29 -1 -53.5 -14.5t-35.5 -25.5t-26 -32l51 -86q11 17 32.5 38t40.5 22z" />
    <glyph glyph-name="endash" unicode="&#x2013;" horiz-adv-x="595" 
d="M0 315v-104h554v104h-554z" />
    <glyph glyph-name="emdash" unicode="&#x2014;" horiz-adv-x="716" 
d="M0 315v-104h676v104h-676z" />
    <glyph glyph-name="quoteleft" unicode="&#x2018;" horiz-adv-x="283" 
d="M152 501q-31 -2 -56 12t-35 38q-17 41 5.5 99.5t87.5 118.5l59 -40q-35 -42 -38 -66.5t23 -45.5q35 -27 22 -69t-68 -47z" />
    <glyph glyph-name="quoteright" unicode="&#x2019;" horiz-adv-x="283" 
d="M130 767q31 2 56 -12t35 -38q17 -41 -5.5 -99.5t-87.5 -118.5l-59 40q35 42 38 66.5t-23 45.5q-35 27 -22 69t68 47z" />
    <glyph glyph-name="quotesinglbase" unicode="&#x201a;" horiz-adv-x="283" 
d="M130 138q31 2 56 -12t35 -38q17 -41 -5.5 -99.5t-87.5 -118.5l-59 40q35 42 38 66.5t-23 45.5q-35 27 -22 69t68 47z" />
    <glyph glyph-name="quotedblleft" unicode="&#x201c;" horiz-adv-x="518" 
d="M387 501q-31 -2 -56 12t-35 38q-17 41 5.5 99.5t87.5 118.5l59 -40q-35 -42 -38 -66.5t23 -45.5q35 -27 22 -69t-68 -47zM152 501q-31 -2 -56 12t-35 38q-17 41 5.5 99.5t87.5 118.5l59 -40q-35 -42 -38 -66.5t23 -45.5q35 -27 22 -69t-68 -47z" />
    <glyph glyph-name="quotedblright" unicode="&#x201d;" horiz-adv-x="518" 
d="M130 767q31 2 56 -12t35 -38q17 -41 -5.5 -99.5t-87.5 -118.5l-59 40q35 42 38 66.5t-23 45.5q-35 27 -22 69t68 47zM365 767q31 2 56 -12t35 -38q17 -41 -5.5 -99.5t-87.5 -118.5l-59 40q35 42 38 66.5t-23 45.5q-35 27 -22 69t68 47z" />
    <glyph glyph-name="quotedblbase" unicode="&#x201e;" horiz-adv-x="518" 
d="M130 138q31 2 56 -12t35 -38q17 -41 -5.5 -99.5t-87.5 -118.5l-59 40q35 42 38 66.5t-23 45.5q-35 27 -22 69t68 47zM365 138q31 2 56 -12t35 -38q17 -41 -5.5 -99.5t-87.5 -118.5l-59 40q35 42 38 66.5t-23 45.5q-35 27 -22 69t68 47z" />
    <glyph glyph-name="bullet" unicode="&#x2022;" horiz-adv-x="351" 
d="M176 478q-56 0 -96 -37t-40 -91t40 -90t96 -36q52 0 93 36.5t41 89.5t-41.5 90.5t-92.5 37.5z" />
    <glyph glyph-name="ellipsis" unicode="&#x2026;" horiz-adv-x="862" 
d="M40 64q0 -31 24.5 -53t60.5 -22q35 0 60 22t25 53t-25 53t-60 22q-36 0 -60.5 -22t-24.5 -53zM346 64q0 -31 24.5 -53t60.5 -22q35 0 60 22t25 53t-25 53t-60 22q-36 0 -60.5 -22t-24.5 -53zM652 64q0 -31 24.5 -53t60.5 -22q35 0 60 22t25 53t-25 53t-60 22
q-36 0 -60.5 -22t-24.5 -53z" />
    <glyph glyph-name="perthousand" unicode="&#x2030;" horiz-adv-x="1180" 
d="M563 761l-416 -762l94 -52l416 762zM135 553q0 33 21.5 57t50.5 24t50.5 -24t21.5 -57t-21.5 -57t-50.5 -24t-50.5 24t-21.5 57zM40 551q0 -70 49 -120t118 -50t118.5 50t49.5 120t-49.5 120t-118.5 50t-118 -50t-49 -120zM534 159q0 33 21 57t50 24t50.5 -24t21.5 -57
t-21.5 -57t-50.5 -24t-50 24t-21 57zM438 157q0 -70 49 -120t118 -50t118.5 50t49.5 120t-49.5 120t-118.5 50t-118 -50t-49 -120zM901 159q0 33 21 57t50 24t50.5 -24t21.5 -57t-21.5 -57t-50.5 -24t-50 24t-21 57zM805 157q0 -70 49 -120t118 -50t118.5 50t49.5 120
t-49.5 120t-118.5 50t-118 -50t-49 -120z" />
    <glyph glyph-name="fraction" unicode="&#x2044;" horiz-adv-x="591" 
d="M456 761l-416 -762l94 -52l416 762z" />
    <glyph glyph-name="trademark" unicode="&#x2122;" horiz-adv-x="557" 
d="M448 706l-61 -129h-3l-63 129h-64v-33l19 -5v-153l-22 -6v-32h86v32l-21 6v37l-5 88h1q11 -36 21 -56l32 -64h33l31 60l21 57h1q-5 -67 -5 -89v-33l-21 -6v-32h88v32l-21 6v153l17 5v33h-64zM111 667v-151l-22 -6v-33h93v33l-21 6v151h43l3 -37h34v76h-211v-76h33l5 37
h43z" />
    <glyph glyph-name="minus" unicode="&#x2212;" horiz-adv-x="582" 
d="M0 406v-94h541v94h-541z" />
    <glyph glyph-name="apple" unicode="&#xf8ff;" horiz-adv-x="690" 
d="M488 681q0 -63 -43 -113t-105 -50q2 71 40.5 117.5t107.5 55.5v-10zM650 169q-12 -30 -27 -59t-37 -62.5t-50.5 -54t-56.5 -20.5q-18 0 -52 15t-60 15q-40 0 -51 -5q-5 -2 -19.5 -8.5t-21.5 -9t-19 -5.5t-23 -3q-54 0 -109 82q-84 124 -84 252q0 91 49.5 155.5
t137.5 64.5q25 0 66 -15t59 -15t61 16t73 16q92 0 145 -71q-40 -31 -60 -62.5t-20 -76.5q0 -50 26.5 -90t72.5 -59z" />
    </font>
</defs>
</svg>
